<svg id="Layer_1" data-name="Layer 1" xmlns="http://www.w3.org/2000/svg" viewBox="0 0 62.57 77.88"><defs><style>.cls-1{fill:none;stroke:#2f3c7e;stroke-miterlimit:10;stroke-width:2px;}.cls-2,.cls-4{fill:#2f3c7e;}.cls-3{fill:#9b5c8f;}.cls-4{font-size:18px;font-family:Quicksand-Bold, Quicksand;font-weight:700;}.cls-5{letter-spacing:0em;}</style></defs><title>Logo_v2 80x80 (sky)</title><g id="Logo"><circle id="Head" class="cls-1" cx="32.59" cy="13.14" r="12.14"/><path id="_1st" data-name="1st" class="cls-2" d="M18.09,49.77h2.78a.5.5,0,0,1,.5.5v5.17a0,0,0,0,1,0,0H17.59a0,0,0,0,1,0,0V50.27A.5.5,0,0,1,18.09,49.77Z"/><path id="_2nd" data-name="2nd" class="cls-3" d="M23.36,46h2.78a.5.5,0,0,1,.5.5v8.95a0,0,0,0,1,0,0H22.86a0,0,0,0,1,0,0V46.49A.5.5,0,0,1,23.36,46Z"/><path id="_3rd" data-name="3rd" class="cls-2" d="M28.57,47.88h2.78a.5.5,0,0,1,.5.5v7.06a0,0,0,0,1,0,0H28.07a0,0,0,0,1,0,0V48.38A.5.5,0,0,1,28.57,47.88Z"/><path id="_4th" data-name="4th" class="cls-3" d="M33.73,44.1h2.78a.5.5,0,0,1,.5.5V55.43a0,0,0,0,1,0,0H33.23a0,0,0,0,1,0,0V44.6A.5.5,0,0,1,33.73,44.1Z"/><path id="_5th" data-name="5th" class="cls-2" d="M38.94,46.43h2.78a.5.5,0,0,1,.5.5v8.5a0,0,0,0,1,0,0H38.44a0,0,0,0,1,0,0v-8.5A.5.5,0,0,1,38.94,46.43Z"/><path id="_6th" data-name="6th" class="cls-3" d="M44.1,42.21h2.78a.5.5,0,0,1,.5.5V55.43a0,0,0,0,1,0,0H43.6a0,0,0,0,1,0,0V42.71A.5.5,0,0,1,44.1,42.21Z"/><path id="Body" class="cls-1" d="M21.15,30.74H43.81a12,12,0,0,1,12,12V53.11a3,3,0,0,1-3,3H12.15a3,3,0,0,1-3-3V42.74a12,12,0,0,1,12-12Z"/><g id="Chart"><circle class="cls-2" cx="19.45" cy="44.93" r="1.77"/><rect class="cls-2" x="27.43" y="43.01" width="4.51" height="1.24" transform="translate(-30.19 34.06) rotate(-47.04)"/><circle class="cls-2" cx="24.64" cy="39.2" r="1.77"/><circle class="cls-2" cx="29.82" cy="43.02" r="1.77"/><circle class="cls-2" cx="35.28" cy="37.01" r="1.77"/><circle class="cls-2" cx="40.46" cy="42.2" r="1.77"/><rect class="cls-2" x="48.52" y="40.34" width="5.4" height="1.24" transform="translate(-21.37 48.98) rotate(-47.05)"/><polygon class="cls-2" points="46.34 36.36 46.02 37.76 45.7 39.15 44.66 38.17 43.61 37.2 44.98 36.78 46.34 36.36"/><rect class="cls-2" x="37.86" y="41.05" width="5.01" height="1.24" transform="translate(-25.35 41.26) rotate(-47.04)"/><rect class="cls-2" x="33.33" y="42.04" width="3.28" height="1.24" transform="translate(28.1 -14.06) rotate(40.22)"/><rect class="cls-2" x="43.23" y="40.36" width="4.82" height="1.24" transform="translate(34.63 -21.83) rotate(45)"/></g><text class="cls-4" transform="translate(0 74.08)">His<tspan class="cls-5" x="25.87" y="0">t</tspan><tspan x="33.14" y="0">ory</tspan></text></g></svg>